# xmcd
#
# Track frame offsets:
#	150
#	16916
#	34704
#	49211
#	63226
#	78656
#	96505
#	114359
#	131833
#	146082
#	160439
#	174088
#	187437
#	206903
#	222305
#	239587
#	254122
#	273344
#	287631
#	305189
#
# Disc length: 4308 seconds
#
# Revision: 1
# Processed by: cddbd v1.5.2PL0 Copyright (c) Steve Scherf et al.
# Submitted via: audiograbber 1.83.01
#
DISCID=4310d214
DTITLE=LOS YONIC'S - 20 SUPER EXITOS
DYEAR=2000
DGENRE=GRUPERO
TTITLE0=PERDONAME
TTITLE1=ENAMORADO
TTITLE2=MUCHACHA MAGICA
TTITLE3=LE FALTA UN CLAVO A MI CRUZ
TTITLE4=TENDRAS UN ALTAR
TTITLE5=ASI TE QUIERO YO
TTITLE6=MAL HERIDO
TTITLE7=PERO TE VAS A ARREPENTIR
TTITLE8=LAGRIMAS FRENTE AL MAR
TTITLE9=UN DOLOR
TTITLE10=Y TE AMO
TTITLE11=NI TU AMIGO NI TU AMANTE
TTITLE12=NO MAS BOLEROS
TTITLE13=PETALO Y ESPINAS
TTITLE14=ROSAS BLANCAS
TTITLE15=SOY YO
TTITLE16=PALABRAS TRISTES
TTITLE17=TITERE
TTITLE18=DIME
TTITLE19=TU PRESA FACIL
EXTD=
EXTT0=
EXTT1=
EXTT2=
EXTT3=
EXTT4=
EXTT5=
EXTT6=
EXTT7=
EXTT8=
EXTT9=
EXTT10=
EXTT11=
EXTT12=
EXTT13=
EXTT14=
EXTT15=
EXTT16=
EXTT17=
EXTT18=
EXTT19=
PLAYORDER=
